<mxfile host="app.diagrams.net" modified="2022-11-29T16:20:40.679Z" agent="5.0 (Windows NT 10.0; Win64; x64) AppleWebKit/537.36 (KHTML, like Gecko) Chrome/107.0.0.0 Safari/537.36 Edg/107.0.1418.42" etag="CrQe_LNu2Yyc4FuARt9w" version="20.6.0" type="github">
  <diagram id="In_yStUq_a00IFvJW7Pw" name="第 1 页">
    <mxGraphModel dx="1038" dy="547" grid="1" gridSize="10" guides="1" tooltips="1" connect="1" arrows="1" fold="1" page="1" pageScale="1" pageWidth="827" pageHeight="1169" math="0" shadow="0">
      <root>
        <mxCell id="0" />
        <mxCell id="1" parent="0" />
        <mxCell id="PbnVtULJITPwuukzYumI-120" value="" style="rounded=0;whiteSpace=wrap;html=1;fontSize=19;" parent="1" vertex="1">
          <mxGeometry x="20" y="70" width="2190" height="1200" as="geometry" />
        </mxCell>
        <mxCell id="PbnVtULJITPwuukzYumI-2" value="" style="rounded=1;whiteSpace=wrap;html=1;movable=1;resizable=1;rotatable=1;deletable=1;editable=1;connectable=1;fontSize=16;fillColor=#CCFFFF;" parent="1" vertex="1">
          <mxGeometry x="100" y="338" width="360" height="472" as="geometry" />
        </mxCell>
        <mxCell id="PbnVtULJITPwuukzYumI-3" value="dataX" style="swimlane;childLayout=stackLayout;resizeParent=1;resizeParentMax=0;startSize=20;html=1;rounded=0;gradientColor=none;fontSize=16;" parent="1" vertex="1">
          <mxGeometry x="550" y="140" width="1410" height="1050" as="geometry" />
        </mxCell>
        <mxCell id="PbnVtULJITPwuukzYumI-4" value="Hdfs&amp;nbsp; Reader" style="swimlane;startSize=20;html=1;rounded=0;gradientColor=none;fontSize=16;" parent="PbnVtULJITPwuukzYumI-3" vertex="1">
          <mxGeometry y="20" width="200" height="1030" as="geometry" />
        </mxCell>
        <mxCell id="PbnVtULJITPwuukzYumI-5" value="" style="rounded=0;whiteSpace=wrap;html=1;gradientColor=none;fontSize=16;" parent="PbnVtULJITPwuukzYumI-4" vertex="1">
          <mxGeometry x="43.86" y="230" width="128.75" height="60" as="geometry" />
        </mxCell>
        <mxCell id="PbnVtULJITPwuukzYumI-6" value="channle-2" style="text;html=1;strokeColor=none;fillColor=none;align=center;verticalAlign=middle;whiteSpace=wrap;rounded=0;fontSize=16;" parent="PbnVtULJITPwuukzYumI-4" vertex="1">
          <mxGeometry x="78.23" y="245" width="60" height="30" as="geometry" />
        </mxCell>
        <mxCell id="PbnVtULJITPwuukzYumI-7" value="" style="rounded=0;whiteSpace=wrap;html=1;gradientColor=none;fontSize=16;" parent="PbnVtULJITPwuukzYumI-4" vertex="1">
          <mxGeometry x="38.17999999999999" y="420" width="131.36" height="60" as="geometry" />
        </mxCell>
        <mxCell id="PbnVtULJITPwuukzYumI-8" value="channle-3" style="text;html=1;strokeColor=none;fillColor=none;align=center;verticalAlign=middle;whiteSpace=wrap;rounded=0;fontSize=16;" parent="PbnVtULJITPwuukzYumI-4" vertex="1">
          <mxGeometry x="73.86000000000001" y="435" width="60" height="30" as="geometry" />
        </mxCell>
        <mxCell id="PbnVtULJITPwuukzYumI-9" value="" style="rounded=0;whiteSpace=wrap;html=1;gradientColor=none;fontSize=16;" parent="PbnVtULJITPwuukzYumI-4" vertex="1">
          <mxGeometry x="35.63" y="90" width="128.75" height="60" as="geometry" />
        </mxCell>
        <mxCell id="PbnVtULJITPwuukzYumI-10" value="channle-1" style="text;html=1;strokeColor=none;fillColor=none;align=center;verticalAlign=middle;whiteSpace=wrap;rounded=0;fontSize=16;" parent="PbnVtULJITPwuukzYumI-4" vertex="1">
          <mxGeometry x="70.00000000000001" y="105" width="60" height="30" as="geometry" />
        </mxCell>
        <mxCell id="PbnVtULJITPwuukzYumI-11" style="edgeStyle=orthogonalEdgeStyle;rounded=0;orthogonalLoop=1;jettySize=auto;html=1;exitX=1;exitY=0.5;exitDx=0;exitDy=0;entryX=0.5;entryY=0;entryDx=0;entryDy=0;strokeWidth=1;fontSize=16;" parent="PbnVtULJITPwuukzYumI-3" source="PbnVtULJITPwuukzYumI-9" target="PbnVtULJITPwuukzYumI-17" edge="1">
          <mxGeometry relative="1" as="geometry" />
        </mxCell>
        <mxCell id="PbnVtULJITPwuukzYumI-12" style="edgeStyle=orthogonalEdgeStyle;rounded=0;orthogonalLoop=1;jettySize=auto;html=1;exitX=1;exitY=0.5;exitDx=0;exitDy=0;entryX=0;entryY=0.5;entryDx=0;entryDy=0;strokeWidth=1;fontSize=16;" parent="PbnVtULJITPwuukzYumI-3" source="PbnVtULJITPwuukzYumI-5" target="PbnVtULJITPwuukzYumI-17" edge="1">
          <mxGeometry relative="1" as="geometry" />
        </mxCell>
        <mxCell id="PbnVtULJITPwuukzYumI-13" style="edgeStyle=orthogonalEdgeStyle;rounded=0;orthogonalLoop=1;jettySize=auto;html=1;exitX=1;exitY=0.5;exitDx=0;exitDy=0;entryX=0.5;entryY=1;entryDx=0;entryDy=0;strokeWidth=1;fontSize=16;" parent="PbnVtULJITPwuukzYumI-3" source="PbnVtULJITPwuukzYumI-7" target="PbnVtULJITPwuukzYumI-17" edge="1">
          <mxGeometry relative="1" as="geometry" />
        </mxCell>
        <mxCell id="PbnVtULJITPwuukzYumI-14" value="Neo4j Writer" style="swimlane;startSize=20;html=1;rounded=0;gradientColor=none;fontSize=16;" parent="PbnVtULJITPwuukzYumI-3" vertex="1">
          <mxGeometry x="200" y="20" width="1210" height="1030" as="geometry" />
        </mxCell>
        <mxCell id="PbnVtULJITPwuukzYumI-117" value="" style="rounded=0;whiteSpace=wrap;html=1;strokeColor=#000000;fontSize=16;fillColor=#FFCCE6;" parent="PbnVtULJITPwuukzYumI-14" vertex="1">
          <mxGeometry x="380" y="160" width="590" height="300" as="geometry" />
        </mxCell>
        <mxCell id="PbnVtULJITPwuukzYumI-17" value="逐行读取record" style="rounded=0;whiteSpace=wrap;html=1;fontSize=16;" parent="PbnVtULJITPwuukzYumI-14" vertex="1">
          <mxGeometry x="40" y="237.50000000000006" width="82" height="45" as="geometry" />
        </mxCell>
        <mxCell id="PbnVtULJITPwuukzYumI-18" style="edgeStyle=orthogonalEdgeStyle;rounded=0;orthogonalLoop=1;jettySize=auto;html=1;exitX=1;exitY=0.5;exitDx=0;exitDy=0;entryX=0;entryY=0.5;entryDx=0;entryDy=0;fontSize=16;" parent="PbnVtULJITPwuukzYumI-14" source="PbnVtULJITPwuukzYumI-17" target="PbnVtULJITPwuukzYumI-107" edge="1">
          <mxGeometry relative="1" as="geometry">
            <mxPoint x="220" y="260" as="targetPoint" />
          </mxGeometry>
        </mxCell>
        <mxCell id="PbnVtULJITPwuukzYumI-24" style="edgeStyle=orthogonalEdgeStyle;rounded=0;orthogonalLoop=1;jettySize=auto;html=1;exitX=0.5;exitY=1;exitDx=0;exitDy=0;entryX=0.5;entryY=0;entryDx=0;entryDy=0;strokeWidth=1;fontSize=18;" parent="PbnVtULJITPwuukzYumI-14" edge="1">
          <mxGeometry relative="1" as="geometry">
            <mxPoint x="317.8000000000002" y="410" as="sourcePoint" />
          </mxGeometry>
        </mxCell>
        <mxCell id="PbnVtULJITPwuukzYumI-26" style="edgeStyle=orthogonalEdgeStyle;rounded=0;orthogonalLoop=1;jettySize=auto;html=1;exitX=0.5;exitY=1;exitDx=0;exitDy=0;entryX=0.5;entryY=0;entryDx=0;entryDy=0;fontSize=16;" parent="PbnVtULJITPwuukzYumI-14" edge="1">
          <mxGeometry relative="1" as="geometry">
            <mxPoint x="453.78" y="-77.49999999999991" as="sourcePoint" />
            <mxPoint x="317.8000000000002" y="370" as="targetPoint" />
          </mxGeometry>
        </mxCell>
        <mxCell id="PbnVtULJITPwuukzYumI-27" value="false" style="edgeLabel;html=1;align=center;verticalAlign=middle;resizable=0;points=[];fontSize=16;" parent="PbnVtULJITPwuukzYumI-26" vertex="1" connectable="0">
          <mxGeometry x="-0.2575" y="-2" relative="1" as="geometry">
            <mxPoint as="offset" />
          </mxGeometry>
        </mxCell>
        <mxCell id="PbnVtULJITPwuukzYumI-30" value="" style="edgeStyle=orthogonalEdgeStyle;rounded=0;orthogonalLoop=1;jettySize=auto;html=1;fontSize=16;exitX=0.5;exitY=1;exitDx=0;exitDy=0;" parent="PbnVtULJITPwuukzYumI-14" edge="1">
          <mxGeometry relative="1" as="geometry">
            <mxPoint x="318.7800000000002" y="540" as="sourcePoint" />
          </mxGeometry>
        </mxCell>
        <mxCell id="PbnVtULJITPwuukzYumI-31" value="true" style="edgeLabel;html=1;align=center;verticalAlign=middle;resizable=0;points=[];fontSize=16;" parent="PbnVtULJITPwuukzYumI-30" vertex="1" connectable="0">
          <mxGeometry x="0.16" y="4" relative="1" as="geometry">
            <mxPoint x="-6" y="-6" as="offset" />
          </mxGeometry>
        </mxCell>
        <mxCell id="PbnVtULJITPwuukzYumI-39" value="" style="edgeStyle=orthogonalEdgeStyle;rounded=0;jumpSize=6;orthogonalLoop=1;jettySize=auto;html=1;strokeColor=#000000;strokeWidth=1;entryX=0.5;entryY=0;entryDx=0;entryDy=0;fontSize=16;" parent="PbnVtULJITPwuukzYumI-14" edge="1">
          <mxGeometry relative="1" as="geometry">
            <mxPoint x="318.81818181818153" y="630" as="sourcePoint" />
          </mxGeometry>
        </mxCell>
        <mxCell id="PbnVtULJITPwuukzYumI-43" value="" style="edgeStyle=orthogonalEdgeStyle;rounded=0;jumpSize=6;orthogonalLoop=1;jettySize=auto;html=1;strokeColor=#000000;strokeWidth=1;fontSize=16;" parent="PbnVtULJITPwuukzYumI-14" edge="1">
          <mxGeometry relative="1" as="geometry">
            <mxPoint x="318.81818181818153" y="706.75" as="sourcePoint" />
          </mxGeometry>
        </mxCell>
        <mxCell id="PbnVtULJITPwuukzYumI-92" value="" style="edgeStyle=orthogonalEdgeStyle;rounded=0;orthogonalLoop=1;jettySize=auto;html=1;entryX=0;entryY=0.5;entryDx=0;entryDy=0;exitX=1;exitY=0.5;exitDx=0;exitDy=0;fontSize=16;" parent="PbnVtULJITPwuukzYumI-14" source="PbnVtULJITPwuukzYumI-107" target="PbnVtULJITPwuukzYumI-97" edge="1">
          <mxGeometry relative="1" as="geometry">
            <mxPoint x="340" y="260" as="sourcePoint" />
            <mxPoint x="420" y="260" as="targetPoint" />
          </mxGeometry>
        </mxCell>
        <mxCell id="PbnVtULJITPwuukzYumI-108" value="是" style="edgeLabel;html=1;align=center;verticalAlign=middle;resizable=0;points=[];fontSize=16;" parent="PbnVtULJITPwuukzYumI-92" vertex="1" connectable="0">
          <mxGeometry x="-0.3779" y="-5" relative="1" as="geometry">
            <mxPoint as="offset" />
          </mxGeometry>
        </mxCell>
        <mxCell id="PbnVtULJITPwuukzYumI-100" value="加锁成功" style="edgeStyle=orthogonalEdgeStyle;curved=1;orthogonalLoop=1;jettySize=auto;html=1;fontSize=16;" parent="PbnVtULJITPwuukzYumI-14" source="PbnVtULJITPwuukzYumI-97" target="PbnVtULJITPwuukzYumI-99" edge="1">
          <mxGeometry relative="1" as="geometry" />
        </mxCell>
        <mxCell id="PbnVtULJITPwuukzYumI-103" value="如果某个id已经被锁" style="edgeStyle=orthogonalEdgeStyle;curved=1;orthogonalLoop=1;jettySize=auto;html=1;fontSize=16;" parent="PbnVtULJITPwuukzYumI-14" edge="1">
          <mxGeometry relative="1" as="geometry">
            <mxPoint x="567.5" y="307.5" as="sourcePoint" />
            <mxPoint x="567.5" y="380" as="targetPoint" />
          </mxGeometry>
        </mxCell>
        <mxCell id="PbnVtULJITPwuukzYumI-97" value="对所有的开始节点和结束节点的UID加锁" style="rhombus;whiteSpace=wrap;html=1;rounded=0;fontSize=16;fillColor=#FF6666;" parent="PbnVtULJITPwuukzYumI-14" vertex="1">
          <mxGeometry x="460" y="212.5" width="215" height="95" as="geometry" />
        </mxCell>
        <mxCell id="PbnVtULJITPwuukzYumI-105" value="" style="edgeStyle=orthogonalEdgeStyle;curved=1;orthogonalLoop=1;jettySize=auto;html=1;fontSize=16;" parent="PbnVtULJITPwuukzYumI-14" source="PbnVtULJITPwuukzYumI-99" target="PbnVtULJITPwuukzYumI-104" edge="1">
          <mxGeometry relative="1" as="geometry" />
        </mxCell>
        <mxCell id="PbnVtULJITPwuukzYumI-99" value="执行写入" style="whiteSpace=wrap;html=1;rounded=0;fontSize=16;" parent="PbnVtULJITPwuukzYumI-14" vertex="1">
          <mxGeometry x="770" y="230" width="120" height="60" as="geometry" />
        </mxCell>
        <mxCell id="PbnVtULJITPwuukzYumI-109" style="edgeStyle=orthogonalEdgeStyle;rounded=0;orthogonalLoop=1;jettySize=auto;html=1;exitX=0;exitY=0.5;exitDx=0;exitDy=0;entryX=0;entryY=0.5;entryDx=0;entryDy=0;fontSize=16;" parent="PbnVtULJITPwuukzYumI-14" source="PbnVtULJITPwuukzYumI-114" target="PbnVtULJITPwuukzYumI-97" edge="1">
          <mxGeometry relative="1" as="geometry" />
        </mxCell>
        <mxCell id="PbnVtULJITPwuukzYumI-115" value="" style="edgeStyle=orthogonalEdgeStyle;curved=1;orthogonalLoop=1;jettySize=auto;html=1;fontSize=16;" parent="PbnVtULJITPwuukzYumI-14" source="PbnVtULJITPwuukzYumI-102" target="PbnVtULJITPwuukzYumI-114" edge="1">
          <mxGeometry relative="1" as="geometry" />
        </mxCell>
        <mxCell id="PbnVtULJITPwuukzYumI-102" value="释放该线程已持有的UID锁" style="whiteSpace=wrap;html=1;rounded=0;fontSize=16;fillColor=#97D077;" parent="PbnVtULJITPwuukzYumI-14" vertex="1">
          <mxGeometry x="507.5" y="380" width="120" height="60" as="geometry" />
        </mxCell>
        <mxCell id="PbnVtULJITPwuukzYumI-112" value="" style="edgeStyle=orthogonalEdgeStyle;rounded=0;orthogonalLoop=1;jettySize=auto;html=1;fontSize=16;" parent="PbnVtULJITPwuukzYumI-14" source="PbnVtULJITPwuukzYumI-104" target="PbnVtULJITPwuukzYumI-111" edge="1">
          <mxGeometry relative="1" as="geometry" />
        </mxCell>
        <mxCell id="PbnVtULJITPwuukzYumI-104" value="释放该线程已持有的UID锁" style="whiteSpace=wrap;html=1;rounded=0;fontSize=16;fillColor=#97D077;" parent="PbnVtULJITPwuukzYumI-14" vertex="1">
          <mxGeometry x="770" y="365" width="120" height="60" as="geometry" />
        </mxCell>
        <mxCell id="PbnVtULJITPwuukzYumI-107" value="读取数量是否大于batchSize" style="rhombus;whiteSpace=wrap;html=1;fontSize=16;" parent="PbnVtULJITPwuukzYumI-14" vertex="1">
          <mxGeometry x="190" y="220" width="130" height="80" as="geometry" />
        </mxCell>
        <mxCell id="PbnVtULJITPwuukzYumI-111" value="唤醒休眠线程" style="whiteSpace=wrap;html=1;fontSize=16;rounded=0;fillColor=#999999;" parent="PbnVtULJITPwuukzYumI-14" vertex="1">
          <mxGeometry x="770" y="485" width="120" height="60" as="geometry" />
        </mxCell>
        <mxCell id="PbnVtULJITPwuukzYumI-114" value="线程休眠" style="whiteSpace=wrap;html=1;fontSize=16;rounded=0;fillColor=#999999;" parent="PbnVtULJITPwuukzYumI-14" vertex="1">
          <mxGeometry x="507.5" y="490" width="120" height="60" as="geometry" />
        </mxCell>
        <mxCell id="PbnVtULJITPwuukzYumI-118" value="原子性区域" style="text;html=1;strokeColor=none;fillColor=none;align=center;verticalAlign=middle;whiteSpace=wrap;rounded=0;fontSize=19;" parent="PbnVtULJITPwuukzYumI-14" vertex="1">
          <mxGeometry x="382.5" y="170.5" width="125" height="42" as="geometry" />
        </mxCell>
        <mxCell id="PbnVtULJITPwuukzYumI-59" style="edgeStyle=orthogonalEdgeStyle;rounded=0;orthogonalLoop=1;jettySize=auto;html=1;exitX=0.5;exitY=0;exitDx=0;exitDy=0;exitPerimeter=0;entryX=0;entryY=0.5;entryDx=0;entryDy=0;fontSize=16;" parent="1" source="PbnVtULJITPwuukzYumI-69" target="PbnVtULJITPwuukzYumI-9" edge="1">
          <mxGeometry relative="1" as="geometry">
            <mxPoint x="932.0700000000002" y="213.5" as="targetPoint" />
          </mxGeometry>
        </mxCell>
        <mxCell id="PbnVtULJITPwuukzYumI-60" style="edgeStyle=orthogonalEdgeStyle;rounded=0;orthogonalLoop=1;jettySize=auto;html=1;exitX=1;exitY=0.5;exitDx=0;exitDy=0;exitPerimeter=0;entryX=0;entryY=0.5;entryDx=0;entryDy=0;fontSize=16;" parent="1" source="PbnVtULJITPwuukzYumI-68" target="PbnVtULJITPwuukzYumI-5" edge="1">
          <mxGeometry relative="1" as="geometry" />
        </mxCell>
        <mxCell id="PbnVtULJITPwuukzYumI-61" style="edgeStyle=orthogonalEdgeStyle;rounded=0;orthogonalLoop=1;jettySize=auto;html=1;exitX=1;exitY=0.5;exitDx=0;exitDy=0;exitPerimeter=0;entryX=0;entryY=0.5;entryDx=0;entryDy=0;fontSize=16;" parent="1" source="PbnVtULJITPwuukzYumI-67" target="PbnVtULJITPwuukzYumI-7" edge="1">
          <mxGeometry relative="1" as="geometry" />
        </mxCell>
        <mxCell id="PbnVtULJITPwuukzYumI-62" value="Neo4j" style="strokeWidth=2;html=1;shape=mxgraph.flowchart.database;whiteSpace=wrap;strokeColor=#000000;fontSize=16;fillColor=#FFCCE6;" parent="1" vertex="1">
          <mxGeometry x="2020" y="850" width="140" height="180.5" as="geometry" />
        </mxCell>
        <mxCell id="PbnVtULJITPwuukzYumI-65" value="&lt;font color=&quot;#000000&quot; style=&quot;font-size: 16px;&quot;&gt;HDFSSystem&lt;/font&gt;" style="text;html=1;strokeColor=none;fillColor=none;align=center;verticalAlign=middle;whiteSpace=wrap;rounded=0;shadow=0;glass=0;dashed=1;dashPattern=1 4;sketch=0;strokeWidth=2;fontSize=16;fontColor=#FFFFFF;" parent="1" vertex="1">
          <mxGeometry x="120" y="360" width="233.79" height="30" as="geometry" />
        </mxCell>
        <mxCell id="PbnVtULJITPwuukzYumI-66" value="&#xa;&lt;span style=&quot;color: rgb(0, 0, 0); font-family: Helvetica; font-size: 16px; font-style: normal; font-variant-ligatures: normal; font-variant-caps: normal; font-weight: 400; letter-spacing: normal; orphans: 2; text-align: center; text-indent: 0px; text-transform: none; widows: 2; word-spacing: 0px; -webkit-text-stroke-width: 0px; background-color: rgb(248, 249, 250); text-decoration-thickness: initial; text-decoration-style: initial; text-decoration-color: initial; float: none; display: inline !important;&quot;&gt;HDFS&lt;/span&gt;&#xa;&#xa;" style="whiteSpace=wrap;html=1;shape=mxgraph.basic.document;fontSize=16;" parent="1" vertex="1">
          <mxGeometry x="340.0062208900162" y="630" width="47.21803444422766" height="54.6449511400651" as="geometry" />
        </mxCell>
        <mxCell id="PbnVtULJITPwuukzYumI-67" value="&#xa;&lt;span style=&quot;color: rgb(0, 0, 0); font-family: Helvetica; font-size: 16px; font-style: normal; font-variant-ligatures: normal; font-variant-caps: normal; font-weight: 400; letter-spacing: normal; orphans: 2; text-align: center; text-indent: 0px; text-transform: none; widows: 2; word-spacing: 0px; -webkit-text-stroke-width: 0px; background-color: rgb(248, 249, 250); text-decoration-thickness: initial; text-decoration-style: initial; text-decoration-color: initial; float: none; display: inline !important;&quot;&gt;HDFS&lt;/span&gt;&#xa;&#xa;" style="whiteSpace=wrap;html=1;shape=mxgraph.basic.document;fontSize=16;" parent="1" vertex="1">
          <mxGeometry x="340.0014691119349" y="556" width="47.21803444422766" height="54.6449511400651" as="geometry" />
        </mxCell>
        <mxCell id="PbnVtULJITPwuukzYumI-68" value="&#xa;&lt;span style=&quot;color: rgb(0, 0, 0); font-family: Helvetica; font-size: 16px; font-style: normal; font-variant-ligatures: normal; font-variant-caps: normal; font-weight: 400; letter-spacing: normal; orphans: 2; text-align: center; text-indent: 0px; text-transform: none; widows: 2; word-spacing: 0px; -webkit-text-stroke-width: 0px; background-color: rgb(248, 249, 250); text-decoration-thickness: initial; text-decoration-style: initial; text-decoration-color: initial; float: none; display: inline !important;&quot;&gt;HDFS&lt;/span&gt;&#xa;&#xa;" style="whiteSpace=wrap;html=1;shape=mxgraph.basic.document;fontSize=16;" parent="1" vertex="1">
          <mxGeometry x="339.9967173338536" y="475.3499999999999" width="47.21803444422766" height="54.6449511400651" as="geometry" />
        </mxCell>
        <mxCell id="PbnVtULJITPwuukzYumI-69" value="&#xa;&lt;span style=&quot;color: rgb(0, 0, 0); font-family: Helvetica; font-size: 16px; font-style: normal; font-variant-ligatures: normal; font-variant-caps: normal; font-weight: 400; letter-spacing: normal; orphans: 2; text-align: center; text-indent: 0px; text-transform: none; widows: 2; word-spacing: 0px; -webkit-text-stroke-width: 0px; background-color: rgb(248, 249, 250); text-decoration-thickness: initial; text-decoration-style: initial; text-decoration-color: initial; float: none; display: inline !important;&quot;&gt;HDFS&lt;/span&gt;&#xa;&#xa;" style="whiteSpace=wrap;html=1;shape=mxgraph.basic.document;fontSize=16;" parent="1" vertex="1">
          <mxGeometry x="340.00196555577236" y="400" width="47.21803444422766" height="54.6449511400651" as="geometry" />
        </mxCell>
        <mxCell id="PbnVtULJITPwuukzYumI-70" value="&#xa;&lt;span style=&quot;color: rgb(0, 0, 0); font-family: Helvetica; font-size: 16px; font-style: normal; font-variant-ligatures: normal; font-variant-caps: normal; font-weight: 400; letter-spacing: normal; orphans: 2; text-align: center; text-indent: 0px; text-transform: none; widows: 2; word-spacing: 0px; -webkit-text-stroke-width: 0px; background-color: rgb(248, 249, 250); text-decoration-thickness: initial; text-decoration-style: initial; text-decoration-color: initial; float: none; display: inline !important;&quot;&gt;HDFS&lt;/span&gt;&#xa;&#xa;" style="whiteSpace=wrap;html=1;shape=mxgraph.basic.document;fontSize=16;" parent="1" vertex="1">
          <mxGeometry x="340.00423085791306" y="719.995048859935" width="47.21803444422766" height="54.6449511400651" as="geometry" />
        </mxCell>
        <mxCell id="PbnVtULJITPwuukzYumI-71" value="&#xa;&lt;span style=&quot;color: rgb(0, 0, 0); font-family: Helvetica; font-size: 16px; font-style: normal; font-variant-ligatures: normal; font-variant-caps: normal; font-weight: 400; letter-spacing: normal; orphans: 2; text-align: center; text-indent: 0px; text-transform: none; widows: 2; word-spacing: 0px; -webkit-text-stroke-width: 0px; background-color: rgb(248, 249, 250); text-decoration-thickness: initial; text-decoration-style: initial; text-decoration-color: initial; float: none; display: inline !important;&quot;&gt;HDFS&lt;/span&gt;&#xa;&#xa;" style="whiteSpace=wrap;html=1;shape=mxgraph.basic.document;fontSize=16;" parent="1" vertex="1">
          <mxGeometry x="250.0062208900162" y="630" width="47.21803444422766" height="54.6449511400651" as="geometry" />
        </mxCell>
        <mxCell id="PbnVtULJITPwuukzYumI-72" value="&#xa;&lt;span style=&quot;color: rgb(0, 0, 0); font-family: Helvetica; font-size: 16px; font-style: normal; font-variant-ligatures: normal; font-variant-caps: normal; font-weight: 400; letter-spacing: normal; orphans: 2; text-align: center; text-indent: 0px; text-transform: none; widows: 2; word-spacing: 0px; -webkit-text-stroke-width: 0px; background-color: rgb(248, 249, 250); text-decoration-thickness: initial; text-decoration-style: initial; text-decoration-color: initial; float: none; display: inline !important;&quot;&gt;HDFS&lt;/span&gt;&#xa;&#xa;" style="whiteSpace=wrap;html=1;shape=mxgraph.basic.document;fontSize=16;" parent="1" vertex="1">
          <mxGeometry x="250.0014691119349" y="556" width="47.21803444422766" height="54.6449511400651" as="geometry" />
        </mxCell>
        <mxCell id="PbnVtULJITPwuukzYumI-73" value="&#xa;&lt;span style=&quot;color: rgb(0, 0, 0); font-family: Helvetica; font-size: 16px; font-style: normal; font-variant-ligatures: normal; font-variant-caps: normal; font-weight: 400; letter-spacing: normal; orphans: 2; text-align: center; text-indent: 0px; text-transform: none; widows: 2; word-spacing: 0px; -webkit-text-stroke-width: 0px; background-color: rgb(248, 249, 250); text-decoration-thickness: initial; text-decoration-style: initial; text-decoration-color: initial; float: none; display: inline !important;&quot;&gt;HDFS&lt;/span&gt;&#xa;&#xa;" style="whiteSpace=wrap;html=1;shape=mxgraph.basic.document;fontSize=16;" parent="1" vertex="1">
          <mxGeometry x="249.9967173338536" y="475.3499999999999" width="47.21803444422766" height="54.6449511400651" as="geometry" />
        </mxCell>
        <mxCell id="PbnVtULJITPwuukzYumI-74" value="&#xa;&lt;span style=&quot;color: rgb(0, 0, 0); font-family: Helvetica; font-size: 16px; font-style: normal; font-variant-ligatures: normal; font-variant-caps: normal; font-weight: 400; letter-spacing: normal; orphans: 2; text-align: center; text-indent: 0px; text-transform: none; widows: 2; word-spacing: 0px; -webkit-text-stroke-width: 0px; background-color: rgb(248, 249, 250); text-decoration-thickness: initial; text-decoration-style: initial; text-decoration-color: initial; float: none; display: inline !important;&quot;&gt;HDFS&lt;/span&gt;&#xa;&#xa;" style="whiteSpace=wrap;html=1;shape=mxgraph.basic.document;fontSize=16;" parent="1" vertex="1">
          <mxGeometry x="250.00196555577236" y="400" width="47.21803444422766" height="54.6449511400651" as="geometry" />
        </mxCell>
        <mxCell id="PbnVtULJITPwuukzYumI-75" value="&#xa;&lt;span style=&quot;color: rgb(0, 0, 0); font-family: Helvetica; font-size: 16px; font-style: normal; font-variant-ligatures: normal; font-variant-caps: normal; font-weight: 400; letter-spacing: normal; orphans: 2; text-align: center; text-indent: 0px; text-transform: none; widows: 2; word-spacing: 0px; -webkit-text-stroke-width: 0px; background-color: rgb(248, 249, 250); text-decoration-thickness: initial; text-decoration-style: initial; text-decoration-color: initial; float: none; display: inline !important;&quot;&gt;HDFS&lt;/span&gt;&#xa;&#xa;" style="whiteSpace=wrap;html=1;shape=mxgraph.basic.document;fontSize=16;" parent="1" vertex="1">
          <mxGeometry x="250.00423085791306" y="719.995048859935" width="47.21803444422766" height="54.6449511400651" as="geometry" />
        </mxCell>
        <mxCell id="PbnVtULJITPwuukzYumI-76" value="&#xa;&lt;span style=&quot;color: rgb(0, 0, 0); font-family: Helvetica; font-size: 16px; font-style: normal; font-variant-ligatures: normal; font-variant-caps: normal; font-weight: 400; letter-spacing: normal; orphans: 2; text-align: center; text-indent: 0px; text-transform: none; widows: 2; word-spacing: 0px; -webkit-text-stroke-width: 0px; background-color: rgb(248, 249, 250); text-decoration-thickness: initial; text-decoration-style: initial; text-decoration-color: initial; float: none; display: inline !important;&quot;&gt;HDFS&lt;/span&gt;&#xa;&#xa;" style="whiteSpace=wrap;html=1;shape=mxgraph.basic.document;fontSize=16;" parent="1" vertex="1">
          <mxGeometry x="149.0062208900162" y="630" width="47.21803444422766" height="54.6449511400651" as="geometry" />
        </mxCell>
        <mxCell id="PbnVtULJITPwuukzYumI-77" value="&#xa;&lt;span style=&quot;color: rgb(0, 0, 0); font-family: Helvetica; font-size: 16px; font-style: normal; font-variant-ligatures: normal; font-variant-caps: normal; font-weight: 400; letter-spacing: normal; orphans: 2; text-align: center; text-indent: 0px; text-transform: none; widows: 2; word-spacing: 0px; -webkit-text-stroke-width: 0px; background-color: rgb(248, 249, 250); text-decoration-thickness: initial; text-decoration-style: initial; text-decoration-color: initial; float: none; display: inline !important;&quot;&gt;HDFS&lt;/span&gt;&#xa;&#xa;" style="whiteSpace=wrap;html=1;shape=mxgraph.basic.document;fontSize=16;" parent="1" vertex="1">
          <mxGeometry x="149.0014691119349" y="556" width="47.21803444422766" height="54.6449511400651" as="geometry" />
        </mxCell>
        <mxCell id="PbnVtULJITPwuukzYumI-78" value="&#xa;&lt;span style=&quot;color: rgb(0, 0, 0); font-family: Helvetica; font-size: 16px; font-style: normal; font-variant-ligatures: normal; font-variant-caps: normal; font-weight: 400; letter-spacing: normal; orphans: 2; text-align: center; text-indent: 0px; text-transform: none; widows: 2; word-spacing: 0px; -webkit-text-stroke-width: 0px; background-color: rgb(248, 249, 250); text-decoration-thickness: initial; text-decoration-style: initial; text-decoration-color: initial; float: none; display: inline !important;&quot;&gt;HDFS&lt;/span&gt;&#xa;&#xa;" style="whiteSpace=wrap;html=1;shape=mxgraph.basic.document;fontSize=16;" parent="1" vertex="1">
          <mxGeometry x="148.9967173338536" y="475.3499999999999" width="47.21803444422766" height="54.6449511400651" as="geometry" />
        </mxCell>
        <mxCell id="PbnVtULJITPwuukzYumI-79" value="&#xa;&lt;span style=&quot;color: rgb(0, 0, 0); font-family: Helvetica; font-size: 16px; font-style: normal; font-variant-ligatures: normal; font-variant-caps: normal; font-weight: 400; letter-spacing: normal; orphans: 2; text-align: center; text-indent: 0px; text-transform: none; widows: 2; word-spacing: 0px; -webkit-text-stroke-width: 0px; background-color: rgb(248, 249, 250); text-decoration-thickness: initial; text-decoration-style: initial; text-decoration-color: initial; float: none; display: inline !important;&quot;&gt;HDFS&lt;/span&gt;&#xa;&#xa;" style="whiteSpace=wrap;html=1;shape=mxgraph.basic.document;fontSize=16;" parent="1" vertex="1">
          <mxGeometry x="149.00196555577236" y="400" width="47.21803444422766" height="54.6449511400651" as="geometry" />
        </mxCell>
        <mxCell id="PbnVtULJITPwuukzYumI-80" value="&#xa;&lt;span style=&quot;color: rgb(0, 0, 0); font-family: Helvetica; font-size: 16px; font-style: normal; font-variant-ligatures: normal; font-variant-caps: normal; font-weight: 400; letter-spacing: normal; orphans: 2; text-align: center; text-indent: 0px; text-transform: none; widows: 2; word-spacing: 0px; -webkit-text-stroke-width: 0px; background-color: rgb(248, 249, 250); text-decoration-thickness: initial; text-decoration-style: initial; text-decoration-color: initial; float: none; display: inline !important;&quot;&gt;HDFS&lt;/span&gt;&#xa;&#xa;" style="whiteSpace=wrap;html=1;shape=mxgraph.basic.document;fontSize=16;" parent="1" vertex="1">
          <mxGeometry x="149.00423085791306" y="719.995048859935" width="47.21803444422766" height="54.6449511400651" as="geometry" />
        </mxCell>
        <mxCell id="PbnVtULJITPwuukzYumI-101" value="" style="group;fontSize=16;" parent="1" vertex="1" connectable="0">
          <mxGeometry x="800" y="660" width="380" height="382" as="geometry" />
        </mxCell>
        <mxCell id="PbnVtULJITPwuukzYumI-82" value="" style="rounded=1;whiteSpace=wrap;html=1;strokeColor=#000000;strokeWidth=2;fontSize=16;fillColor=#CCFFFF;" parent="PbnVtULJITPwuukzYumI-101" vertex="1">
          <mxGeometry width="380" height="382" as="geometry" />
        </mxCell>
        <mxCell id="PbnVtULJITPwuukzYumI-83" value="&lt;font style=&quot;font-size: 16px;&quot;&gt;uid lock pool&lt;/font&gt;" style="strokeWidth=2;html=1;shape=mxgraph.flowchart.multi-document;whiteSpace=wrap;fontSize=16;" parent="PbnVtULJITPwuukzYumI-101" vertex="1">
          <mxGeometry x="143.22000000000003" y="93.37604651162792" width="192" height="163.25581395348837" as="geometry" />
        </mxCell>
        <mxCell id="PbnVtULJITPwuukzYumI-87" value="&lt;b style=&quot;font-size: 16px;&quot;&gt;&lt;font style=&quot;font-size: 16px;&quot;&gt;线程共享区&lt;/font&gt;&lt;/b&gt;" style="text;html=1;strokeColor=none;fillColor=none;align=center;verticalAlign=middle;whiteSpace=wrap;rounded=0;strokeWidth=2;fontSize=16;" parent="PbnVtULJITPwuukzYumI-101" vertex="1">
          <mxGeometry x="22.019999999999982" y="297.3000000000002" width="121.2" height="50.7" as="geometry" />
        </mxCell>
        <mxCell id="PbnVtULJITPwuukzYumI-96" style="edgeStyle=orthogonalEdgeStyle;curved=1;orthogonalLoop=1;jettySize=auto;html=1;exitX=0;exitY=1;exitDx=0;exitDy=0;entryX=0.5;entryY=0;entryDx=0;entryDy=0;entryPerimeter=0;fontSize=16;" parent="1" source="PbnVtULJITPwuukzYumI-97" target="PbnVtULJITPwuukzYumI-83" edge="1">
          <mxGeometry relative="1" as="geometry">
            <mxPoint x="1200" y="450" as="sourcePoint" />
          </mxGeometry>
        </mxCell>
        <mxCell id="PbnVtULJITPwuukzYumI-106" style="edgeStyle=orthogonalEdgeStyle;orthogonalLoop=1;jettySize=auto;html=1;exitX=1;exitY=0.5;exitDx=0;exitDy=0;entryX=0;entryY=0.5;entryDx=0;entryDy=0;entryPerimeter=0;rounded=0;fontSize=16;" parent="1" source="PbnVtULJITPwuukzYumI-99" target="PbnVtULJITPwuukzYumI-62" edge="1">
          <mxGeometry relative="1" as="geometry" />
        </mxCell>
        <mxCell id="PbnVtULJITPwuukzYumI-113" style="edgeStyle=orthogonalEdgeStyle;orthogonalLoop=1;jettySize=auto;html=1;exitX=0;exitY=0.5;exitDx=0;exitDy=0;entryX=1;entryY=0.5;entryDx=0;entryDy=0;entryPerimeter=0;fontSize=16;curved=1;" parent="1" source="PbnVtULJITPwuukzYumI-104" target="PbnVtULJITPwuukzYumI-83" edge="1">
          <mxGeometry relative="1" as="geometry">
            <Array as="points">
              <mxPoint x="1480" y="560" />
              <mxPoint x="1480" y="740" />
              <mxPoint x="1145" y="740" />
            </Array>
          </mxGeometry>
        </mxCell>
        <mxCell id="PbnVtULJITPwuukzYumI-116" style="edgeStyle=orthogonalEdgeStyle;curved=1;orthogonalLoop=1;jettySize=auto;html=1;exitX=0;exitY=0.5;exitDx=0;exitDy=0;entryX=0.98;entryY=0.02;entryDx=0;entryDy=0;entryPerimeter=0;fontSize=16;" parent="1" source="PbnVtULJITPwuukzYumI-102" target="PbnVtULJITPwuukzYumI-83" edge="1">
          <mxGeometry relative="1" as="geometry" />
        </mxCell>
      </root>
    </mxGraphModel>
  </diagram>
</mxfile>
